<svg width="637" height="251" viewBox="0 0 637 251" fill="none" xmlns="http://www.w3.org/2000/svg">
<circle cx="105.055" cy="104.291" r="104.074" fill="#C4C4C4"/>
<rect x="139.498" y="148.832" width="16.3457" height="65.3013" rx="8.17287" transform="rotate(-43.1518 139.498 148.832)" fill="#888888" stroke="#333333"/>
<mask id="path-3-inside-1_3_23" fill="white">
<path d="M152.712 59.6755C176.954 85.5344 175.643 126.149 149.784 150.391C123.925 174.634 83.3105 173.323 59.0683 147.464C34.8261 121.605 36.1367 80.9904 61.9956 56.7482C87.8544 32.506 128.469 33.8166 152.712 59.6755ZM69.7001 137.497C88.4376 157.484 119.83 158.497 139.817 139.76C159.804 121.022 160.817 89.6297 142.08 69.6426C123.342 49.6555 91.9498 48.6425 71.9627 67.38C51.9756 86.1175 50.9626 117.51 69.7001 137.497Z"/>
</mask>
<path d="M152.712 59.6755C176.954 85.5344 175.643 126.149 149.784 150.391C123.925 174.634 83.3105 173.323 59.0683 147.464C34.8261 121.605 36.1367 80.9904 61.9956 56.7482C87.8544 32.506 128.469 33.8166 152.712 59.6755ZM69.7001 137.497C88.4376 157.484 119.83 158.497 139.817 139.76C159.804 121.022 160.817 89.6297 142.08 69.6426C123.342 49.6555 91.9498 48.6425 71.9627 67.38C51.9756 86.1175 50.9626 117.51 69.7001 137.497Z" fill="#888888" stroke="#333333" stroke-width="2" mask="url(#path-3-inside-1_3_23)"/>
<rect x="78.4076" y="84.0426" width="8.67287" height="69.383" rx="4.33644" transform="rotate(-47.3739 78.4076 84.0426)" fill="#E11919"/>
<rect x="85.1706" y="132.389" width="8.67287" height="69.383" rx="4.33644" transform="rotate(-137.374 85.1706 132.389)" fill="#E11919"/>
<path d="M166.388 47.5448H159.419C159.44 45.6073 159.606 43.9823 159.919 42.6698C160.231 41.3365 160.752 40.1281 161.481 39.0448C162.231 37.9615 163.221 36.8156 164.45 35.6073C165.409 34.6906 166.273 33.826 167.044 33.0135C167.815 32.1802 168.429 31.3052 168.888 30.3885C169.346 29.451 169.575 28.3781 169.575 27.1698C169.575 25.8573 169.356 24.7427 168.919 23.826C168.481 22.9094 167.836 22.2115 166.981 21.7323C166.148 21.2531 165.106 21.0135 163.856 21.0135C162.815 21.0135 161.836 21.2219 160.919 21.6385C160.002 22.0344 159.263 22.6594 158.7 23.5135C158.138 24.3469 157.836 25.451 157.794 26.826H150.263C150.304 24.201 150.929 21.9927 152.138 20.201C153.346 18.4094 154.971 17.0656 157.013 16.1698C159.054 15.274 161.336 14.826 163.856 14.826C166.648 14.826 169.034 15.3052 171.013 16.2635C172.992 17.201 174.502 18.576 175.544 20.3885C176.606 22.1802 177.138 24.3469 177.138 26.8885C177.138 28.7219 176.773 30.3885 176.044 31.8885C175.315 33.3677 174.367 34.7531 173.2 36.0448C172.034 37.3156 170.773 38.5865 169.419 39.8573C168.252 40.9198 167.461 42.076 167.044 43.326C166.627 44.5552 166.409 45.9615 166.388 47.5448ZM158.794 57.2948C158.794 56.1698 159.179 55.2219 159.95 54.451C160.721 53.6594 161.773 53.2635 163.106 53.2635C164.44 53.2635 165.492 53.6594 166.263 54.451C167.034 55.2219 167.419 56.1698 167.419 57.2948C167.419 58.4198 167.034 59.3781 166.263 60.1698C165.492 60.9406 164.44 61.326 163.106 61.326C161.773 61.326 160.721 60.9406 159.95 60.1698C159.179 59.3781 158.794 58.4198 158.794 57.2948Z" fill="#888888"/>
<path d="M166.388 47.5448V48.5448H167.375L167.388 47.558L166.388 47.5448ZM159.419 47.5448L158.419 47.534L158.408 48.5448H159.419V47.5448ZM159.919 42.6698L160.892 42.9014L160.893 42.898L159.919 42.6698ZM161.481 39.0448L160.659 38.4755L160.652 38.4864L161.481 39.0448ZM164.45 35.6073L163.759 34.8846L163.749 34.8942L164.45 35.6073ZM167.044 33.0135L167.769 33.7019L167.778 33.6926L167.044 33.0135ZM168.888 30.3885L169.782 30.8358L169.786 30.8278L168.888 30.3885ZM166.981 21.7323L166.483 22.5993L166.492 22.6044L166.981 21.7323ZM160.919 21.6385L161.315 22.5566L161.324 22.5528L161.333 22.5489L160.919 21.6385ZM158.7 23.5135L159.529 24.0731L159.535 24.0635L158.7 23.5135ZM157.794 26.826V27.826H158.764L158.793 26.8563L157.794 26.826ZM150.263 26.826L149.263 26.8102L149.247 27.826H150.263V26.826ZM171.013 16.2635L170.577 17.1636L170.585 17.1673L171.013 16.2635ZM175.544 20.3885L174.677 20.8869L174.684 20.8986L175.544 20.3885ZM176.044 31.8885L176.941 32.3307L176.943 32.3257L176.044 31.8885ZM173.2 36.0448L173.937 36.7211L173.942 36.7151L173.2 36.0448ZM169.419 39.8573L170.092 40.5966L170.098 40.5916L170.103 40.5865L169.419 39.8573ZM167.044 43.326L167.991 43.6471L167.993 43.6423L167.044 43.326ZM159.95 54.451L160.657 55.1582L160.667 55.1487L159.95 54.451ZM166.263 54.451L165.546 55.1487L165.556 55.1582L166.263 54.451ZM166.263 60.1698L166.97 60.877L166.979 60.8674L166.263 60.1698ZM159.95 60.1698L159.234 60.8675L159.243 60.8769L159.95 60.1698ZM166.388 46.5448H159.419V48.5448H166.388V46.5448ZM160.419 47.5556C160.439 45.6632 160.602 44.1177 160.892 42.9014L158.946 42.4382C158.611 43.8469 158.44 45.5514 158.419 47.534L160.419 47.5556ZM160.893 42.898C161.179 41.6767 161.653 40.5812 162.311 39.6032L160.652 38.4864C159.852 39.675 159.284 40.9962 158.945 42.4416L160.893 42.898ZM162.304 39.614C163.009 38.5953 163.954 37.4973 165.151 36.3204L163.749 34.8942C162.488 36.1339 161.454 37.3276 160.659 38.4756L162.304 39.614ZM165.141 36.3299C166.109 35.4041 166.986 34.5279 167.769 33.7018L166.318 32.3253C165.561 33.1242 164.708 33.9772 163.759 34.8847L165.141 36.3299ZM167.778 33.6926C168.606 32.7973 169.277 31.8454 169.782 30.8358L167.993 29.9413C167.581 30.765 167.023 31.5631 166.31 32.3345L167.778 33.6926ZM169.786 30.8278C170.321 29.7334 170.575 28.5063 170.575 27.1698H168.575C168.575 28.2499 168.371 29.1687 167.989 29.9493L169.786 30.8278ZM170.575 27.1698C170.575 25.7502 170.339 24.4798 169.821 23.3953L168.016 24.2568C168.374 25.0056 168.575 25.9644 168.575 27.1698H170.575ZM169.821 23.3953C169.299 22.2998 168.512 21.4442 167.471 20.8602L166.492 22.6044C167.159 22.9787 167.664 23.519 168.016 24.2568L169.821 23.3953ZM167.48 20.8654C166.456 20.2766 165.23 20.0135 163.856 20.0135V22.0135C164.983 22.0135 165.84 22.2296 166.483 22.5992L167.48 20.8654ZM163.856 20.0135C162.677 20.0135 161.556 20.2504 160.505 20.7282L161.333 22.5489C162.115 22.1934 162.952 22.0135 163.856 22.0135V20.0135ZM160.523 20.7205C159.422 21.1956 158.532 21.9507 157.865 22.9636L159.535 24.0635C159.993 23.368 160.582 22.8732 161.315 22.5566L160.523 20.7205ZM157.871 22.9541C157.171 23.9918 156.84 25.299 156.794 26.7958L158.793 26.8563C158.831 25.6031 159.105 24.7019 159.529 24.073L157.871 22.9541ZM157.794 25.826H150.263V27.826H157.794V25.826ZM151.263 26.8419C151.302 24.3687 151.888 22.3595 152.967 20.7602L151.309 19.6419C149.971 21.6259 149.307 24.0334 149.263 26.8102L151.263 26.8419ZM152.967 20.7602C154.066 19.1306 155.54 17.9079 157.414 17.0855L156.611 15.2541C154.402 16.2234 152.626 17.6882 151.309 19.6419L152.967 20.7602ZM157.414 17.0855C159.314 16.2521 161.456 15.826 163.856 15.826V13.826C161.215 13.826 158.795 14.2958 156.611 15.2541L157.414 17.0855ZM163.856 15.826C166.537 15.826 168.765 16.2863 170.577 17.1636L171.449 15.3635C169.302 14.3241 166.76 13.826 163.856 13.826V15.826ZM170.585 17.1673C172.389 18.0219 173.742 19.2598 174.677 20.8868L176.411 19.8903C175.263 17.8923 173.595 16.3802 171.441 15.3598L170.585 17.1673ZM174.684 20.8986C175.637 22.5052 176.138 24.4869 176.138 26.8885H178.138C178.138 24.2068 177.576 21.8553 176.404 19.8785L174.684 20.8986ZM176.138 26.8885C176.138 28.5856 175.801 30.1007 175.145 31.4514L176.943 32.3257C177.745 30.6764 178.138 28.8581 178.138 26.8885H176.138ZM175.147 31.4464C174.461 32.8383 173.566 34.1476 172.458 35.3745L173.942 36.7151C175.167 35.3587 176.169 33.8972 176.941 32.3307L175.147 31.4464ZM172.464 35.3685C171.315 36.6198 170.072 37.873 168.735 39.1281L170.103 40.5865C171.474 39.2999 172.752 38.0115 173.937 36.7211L172.464 35.3685ZM168.746 39.118C167.477 40.2729 166.576 41.5683 166.095 43.0098L167.993 43.6423C168.345 42.5838 169.027 41.5667 170.092 40.5966L168.746 39.118ZM166.097 43.005C165.64 44.3524 165.41 45.8658 165.388 47.5316L167.388 47.558C167.407 46.0572 167.614 44.758 167.991 43.6471L166.097 43.005ZM159.794 57.2948C159.794 56.4255 160.081 55.7349 160.657 55.1582L159.243 53.7439C158.278 54.7089 157.794 55.9141 157.794 57.2948H159.794ZM160.667 55.1487C161.211 54.5894 161.983 54.2635 163.106 54.2635V52.2635C161.563 52.2635 160.231 52.7294 159.234 53.7534L160.667 55.1487ZM163.106 54.2635C164.23 54.2635 165.002 54.5894 165.546 55.1487L166.979 53.7534C165.982 52.7294 164.65 52.2635 163.106 52.2635V54.2635ZM165.556 55.1582C166.132 55.7349 166.419 56.4255 166.419 57.2948H168.419C168.419 55.9141 167.935 54.7089 166.97 53.7439L165.556 55.1582ZM166.419 57.2948C166.419 58.1645 166.132 58.871 165.546 59.4722L166.979 60.8674C167.935 59.8853 168.419 58.6751 168.419 57.2948H166.419ZM165.556 59.4627C165.013 60.0057 164.238 60.326 163.106 60.326V62.326C164.642 62.326 165.971 61.8755 166.97 60.8769L165.556 59.4627ZM163.106 60.326C161.975 60.326 161.2 60.0057 160.657 59.4627L159.243 60.8769C160.242 61.8755 161.571 62.326 163.106 62.326V60.326ZM160.667 59.4722C160.081 58.871 159.794 58.1645 159.794 57.2948H157.794C157.794 58.6751 158.277 59.8853 159.234 60.8674L160.667 59.4722Z" fill="#333333"/>
<path d="M292.809 156.812V208H283.984L261.027 171.332V208H252.203V156.812H261.027L284.055 193.551V156.812H292.809ZM300.859 189.402V188.594C300.859 185.852 301.258 183.309 302.055 180.965C302.852 178.598 304 176.547 305.5 174.812C307.023 173.055 308.875 171.695 311.055 170.734C313.258 169.75 315.742 169.258 318.508 169.258C321.297 169.258 323.781 169.75 325.961 170.734C328.164 171.695 330.027 173.055 331.551 174.812C333.074 176.547 334.234 178.598 335.031 180.965C335.828 183.309 336.227 185.852 336.227 188.594V189.402C336.227 192.145 335.828 194.688 335.031 197.031C334.234 199.375 333.074 201.426 331.551 203.184C330.027 204.918 328.176 206.277 325.996 207.262C323.816 208.223 321.344 208.703 318.578 208.703C315.789 208.703 313.293 208.223 311.09 207.262C308.91 206.277 307.059 204.918 305.535 203.184C304.012 201.426 302.852 199.375 302.055 197.031C301.258 194.688 300.859 192.145 300.859 189.402ZM309.332 188.594V189.402C309.332 191.113 309.508 192.73 309.859 194.254C310.211 195.777 310.762 197.113 311.512 198.262C312.262 199.41 313.223 200.312 314.395 200.969C315.566 201.625 316.961 201.953 318.578 201.953C320.148 201.953 321.508 201.625 322.656 200.969C323.828 200.312 324.789 199.41 325.539 198.262C326.289 197.113 326.84 195.777 327.191 194.254C327.566 192.73 327.754 191.113 327.754 189.402V188.594C327.754 186.906 327.566 185.312 327.191 183.812C326.84 182.289 326.277 180.941 325.504 179.77C324.754 178.598 323.793 177.684 322.621 177.027C321.473 176.348 320.102 176.008 318.508 176.008C316.914 176.008 315.531 176.348 314.359 177.027C313.211 177.684 312.262 178.598 311.512 179.77C310.762 180.941 310.211 182.289 309.859 183.812C309.508 185.312 309.332 186.906 309.332 188.594ZM369.766 177.203V208H361.293V169.961H369.379L369.766 177.203ZM381.402 169.715L381.332 177.59C380.816 177.496 380.254 177.426 379.645 177.379C379.059 177.332 378.473 177.309 377.887 177.309C376.434 177.309 375.156 177.52 374.055 177.941C372.953 178.34 372.027 178.926 371.277 179.699C370.551 180.449 369.988 181.363 369.59 182.441C369.191 183.52 368.957 184.727 368.887 186.062L366.953 186.203C366.953 183.812 367.188 181.598 367.656 179.559C368.125 177.52 368.828 175.727 369.766 174.18C370.727 172.633 371.922 171.426 373.352 170.559C374.805 169.691 376.48 169.258 378.379 169.258C378.895 169.258 379.445 169.305 380.031 169.398C380.641 169.492 381.098 169.598 381.402 169.715ZM402.777 208.703C399.965 208.703 397.422 208.246 395.148 207.332C392.898 206.395 390.977 205.094 389.383 203.43C387.812 201.766 386.605 199.809 385.762 197.559C384.918 195.309 384.496 192.883 384.496 190.281V188.875C384.496 185.898 384.93 183.203 385.797 180.789C386.664 178.375 387.871 176.312 389.418 174.602C390.965 172.867 392.793 171.543 394.902 170.629C397.012 169.715 399.297 169.258 401.758 169.258C404.477 169.258 406.855 169.715 408.895 170.629C410.934 171.543 412.621 172.832 413.957 174.496C415.316 176.137 416.324 178.094 416.98 180.367C417.66 182.641 418 185.148 418 187.891V191.512H388.609V185.43H409.633V184.762C409.586 183.238 409.281 181.809 408.719 180.473C408.18 179.137 407.348 178.059 406.223 177.238C405.098 176.418 403.598 176.008 401.723 176.008C400.316 176.008 399.062 176.312 397.961 176.922C396.883 177.508 395.98 178.363 395.254 179.488C394.527 180.613 393.965 181.973 393.566 183.566C393.191 185.137 393.004 186.906 393.004 188.875V190.281C393.004 191.945 393.227 193.492 393.672 194.922C394.141 196.328 394.82 197.559 395.711 198.613C396.602 199.668 397.68 200.5 398.945 201.109C400.211 201.695 401.652 201.988 403.27 201.988C405.309 201.988 407.125 201.578 408.719 200.758C410.312 199.938 411.695 198.777 412.867 197.277L417.332 201.602C416.512 202.797 415.445 203.945 414.133 205.047C412.82 206.125 411.215 207.004 409.316 207.684C407.441 208.363 405.262 208.703 402.777 208.703ZM445.949 197.699C445.949 196.855 445.738 196.094 445.316 195.414C444.895 194.711 444.086 194.078 442.891 193.516C441.719 192.953 439.984 192.438 437.688 191.969C435.672 191.523 433.82 190.996 432.133 190.387C430.469 189.754 429.039 188.992 427.844 188.102C426.648 187.211 425.723 186.156 425.066 184.938C424.41 183.719 424.082 182.312 424.082 180.719C424.082 179.172 424.422 177.707 425.102 176.324C425.781 174.941 426.754 173.723 428.02 172.668C429.285 171.613 430.82 170.781 432.625 170.172C434.453 169.562 436.492 169.258 438.742 169.258C441.93 169.258 444.66 169.797 446.934 170.875C449.23 171.93 450.988 173.371 452.207 175.199C453.426 177.004 454.035 179.043 454.035 181.316H445.562C445.562 180.309 445.305 179.371 444.789 178.504C444.297 177.613 443.547 176.898 442.539 176.359C441.531 175.797 440.266 175.516 438.742 175.516C437.289 175.516 436.082 175.75 435.121 176.219C434.184 176.664 433.48 177.25 433.012 177.977C432.566 178.703 432.344 179.5 432.344 180.367C432.344 181 432.461 181.574 432.695 182.09C432.953 182.582 433.375 183.039 433.961 183.461C434.547 183.859 435.344 184.234 436.352 184.586C437.383 184.938 438.672 185.277 440.219 185.605C443.125 186.215 445.621 187 447.707 187.961C449.816 188.898 451.434 190.117 452.559 191.617C453.684 193.094 454.246 194.969 454.246 197.242C454.246 198.93 453.883 200.477 453.156 201.883C452.453 203.266 451.422 204.473 450.062 205.504C448.703 206.512 447.074 207.297 445.176 207.859C443.301 208.422 441.191 208.703 438.848 208.703C435.402 208.703 432.484 208.094 430.094 206.875C427.703 205.633 425.887 204.051 424.645 202.129C423.426 200.184 422.816 198.168 422.816 196.082H431.008C431.102 197.652 431.535 198.906 432.309 199.844C433.105 200.758 434.09 201.426 435.262 201.848C436.457 202.246 437.688 202.445 438.953 202.445C440.477 202.445 441.754 202.246 442.785 201.848C443.816 201.426 444.602 200.863 445.141 200.16C445.68 199.434 445.949 198.613 445.949 197.699ZM484.551 199.035V169.961H493.059V208H485.043L484.551 199.035ZM485.746 191.125L488.594 191.055C488.594 193.609 488.312 195.965 487.75 198.121C487.188 200.254 486.32 202.117 485.148 203.711C483.977 205.281 482.477 206.512 480.648 207.402C478.82 208.27 476.629 208.703 474.074 208.703C472.223 208.703 470.523 208.434 468.977 207.895C467.43 207.355 466.094 206.523 464.969 205.398C463.867 204.273 463.012 202.809 462.402 201.004C461.793 199.199 461.488 197.043 461.488 194.535V169.961H469.961V194.605C469.961 195.988 470.125 197.148 470.453 198.086C470.781 199 471.227 199.738 471.789 200.301C472.352 200.863 473.008 201.262 473.758 201.496C474.508 201.73 475.305 201.848 476.148 201.848C478.562 201.848 480.461 201.379 481.844 200.441C483.25 199.48 484.246 198.191 484.832 196.574C485.441 194.957 485.746 193.141 485.746 191.125ZM510.812 154V208H502.305V154H510.812ZM537.531 169.961V176.148H516.086V169.961H537.531ZM522.273 160.645H530.746V197.488C530.746 198.66 530.91 199.562 531.238 200.195C531.59 200.805 532.07 201.215 532.68 201.426C533.289 201.637 534.004 201.742 534.824 201.742C535.41 201.742 535.973 201.707 536.512 201.637C537.051 201.566 537.484 201.496 537.812 201.426L537.848 207.895C537.145 208.105 536.324 208.293 535.387 208.457C534.473 208.621 533.418 208.703 532.223 208.703C530.277 208.703 528.555 208.363 527.055 207.684C525.555 206.98 524.383 205.844 523.539 204.273C522.695 202.703 522.273 200.617 522.273 198.016V160.645ZM565.41 197.699C565.41 196.855 565.199 196.094 564.777 195.414C564.355 194.711 563.547 194.078 562.352 193.516C561.18 192.953 559.445 192.438 557.148 191.969C555.133 191.523 553.281 190.996 551.594 190.387C549.93 189.754 548.5 188.992 547.305 188.102C546.109 187.211 545.184 186.156 544.527 184.938C543.871 183.719 543.543 182.312 543.543 180.719C543.543 179.172 543.883 177.707 544.562 176.324C545.242 174.941 546.215 173.723 547.48 172.668C548.746 171.613 550.281 170.781 552.086 170.172C553.914 169.562 555.953 169.258 558.203 169.258C561.391 169.258 564.121 169.797 566.395 170.875C568.691 171.93 570.449 173.371 571.668 175.199C572.887 177.004 573.496 179.043 573.496 181.316H565.023C565.023 180.309 564.766 179.371 564.25 178.504C563.758 177.613 563.008 176.898 562 176.359C560.992 175.797 559.727 175.516 558.203 175.516C556.75 175.516 555.543 175.75 554.582 176.219C553.645 176.664 552.941 177.25 552.473 177.977C552.027 178.703 551.805 179.5 551.805 180.367C551.805 181 551.922 181.574 552.156 182.09C552.414 182.582 552.836 183.039 553.422 183.461C554.008 183.859 554.805 184.234 555.812 184.586C556.844 184.938 558.133 185.277 559.68 185.605C562.586 186.215 565.082 187 567.168 187.961C569.277 188.898 570.895 190.117 572.02 191.617C573.145 193.094 573.707 194.969 573.707 197.242C573.707 198.93 573.344 200.477 572.617 201.883C571.914 203.266 570.883 204.473 569.523 205.504C568.164 206.512 566.535 207.297 564.637 207.859C562.762 208.422 560.652 208.703 558.309 208.703C554.863 208.703 551.945 208.094 549.555 206.875C547.164 205.633 545.348 204.051 544.105 202.129C542.887 200.184 542.277 198.168 542.277 196.082H550.469C550.562 197.652 550.996 198.906 551.77 199.844C552.566 200.758 553.551 201.426 554.723 201.848C555.918 202.246 557.148 202.445 558.414 202.445C559.938 202.445 561.215 202.246 562.246 201.848C563.277 201.426 564.062 200.863 564.602 200.16C565.141 199.434 565.41 198.613 565.41 197.699ZM581.477 203.781C581.477 202.469 581.922 201.367 582.812 200.477C583.703 199.562 584.91 199.105 586.434 199.105C587.98 199.105 589.188 199.562 590.055 200.477C590.945 201.367 591.391 202.469 591.391 203.781C591.391 205.094 590.945 206.195 590.055 207.086C589.188 207.977 587.98 208.422 586.434 208.422C584.91 208.422 583.703 207.977 582.812 207.086C581.922 206.195 581.477 205.094 581.477 203.781ZM601.516 203.781C601.516 202.469 601.961 201.367 602.852 200.477C603.742 199.562 604.949 199.105 606.473 199.105C608.02 199.105 609.227 199.562 610.094 200.477C610.984 201.367 611.43 202.469 611.43 203.781C611.43 205.094 610.984 206.195 610.094 207.086C609.227 207.977 608.02 208.422 606.473 208.422C604.949 208.422 603.742 207.977 602.852 207.086C601.961 206.195 601.516 205.094 601.516 203.781ZM621.555 203.781C621.555 202.469 622 201.367 622.891 200.477C623.781 199.562 624.988 199.105 626.512 199.105C628.059 199.105 629.266 199.562 630.133 200.477C631.023 201.367 631.469 202.469 631.469 203.781C631.469 205.094 631.023 206.195 630.133 207.086C629.266 207.977 628.059 208.422 626.512 208.422C624.988 208.422 623.781 207.977 622.891 207.086C622 206.195 621.555 205.094 621.555 203.781Z" fill="#C4C4C4"/>
<ellipse cx="114.55" cy="244.638" rx="113.57" ry="5.43159" fill="#818181"/>
</svg>
